/* XPM */
static char *_8634_4e89c29ace2a164f6b21a9996a7879f1016cfdc75282690e69d8f4158bc4c62d[] = {
/* columns rows colors chars-per-pixel */
"16 16 132 2 ",
"   c black",
".  c #040404",
"X  c gray2",
"o  c #060606",
"O  c gray3",
"+  c #0B0B0B",
"@  c gray6",
"#  c #000213",
"$  c #060710",
"%  c #00021C",
"&  c #02041C",
"*  c #07091C",
"=  c #090B1B",
"-  c #0A0B1B",
";  c #0C0D1B",
":  c #0E0E1B",
">  c #0E0F1B",
",  c #0E0F1C",
"<  c #0D0F1F",
"1  c #0F101B",
"2  c #0F111F",
"3  c #111110",
"4  c #111111",
"5  c #131310",
"6  c gray7",
"7  c gray8",
"8  c #151515",
"9  c #10101B",
"0  c #12121A",
"q  c #13131A",
"w  c #13141A",
"e  c #14141A",
"r  c #16161A",
"t  c #17171A",
"y  c #10111C",
"u  c #10111D",
"i  c #181818",
"p  c #181819",
"a  c #191919",
"s  c #1A1A19",
"d  c #1B1A19",
"f  c #1B1B19",
"g  c #19191A",
"h  c gray10",
"j  c #1B1B1A",
"k  c #1B1B1B",
"l  c #1C1B19",
"z  c #1C1B1B",
"x  c #1C1C19",
"c  c #1D1D19",
"v  c #1F1F19",
"b  c #1C1C1B",
"n  c #1C1B1D",
"m  c gray11",
"M  c #1D1D1D",
"N  c #1E1E1E",
"B  c #1F1F1E",
"V  c gray12",
"C  c #2B2916",
"Z  c #2F2C17",
"A  c #262418",
"S  c #322E17",
"D  c #343316",
"F  c #353316",
"G  c #3C3815",
"H  c #0D0F20",
"J  c #2C2C2C",
"K  c #313131",
"L  c #3C3C3C",
"P  c gray24",
"I  c #413C15",
"U  c #433D14",
"Y  c #433E14",
"T  c #433F16",
"R  c #443E19",
"E  c #453F19",
"W  c #454215",
"Q  c #484315",
"!  c #5C5612",
"~  c #675C0D",
"^  c #615A11",
"/  c #665B10",
"(  c #71640F",
")  c #7E740E",
"_  c #6F6610",
"`  c gray25",
"'  c #434343",
"]  c #484746",
"[  c #515151",
"{  c #626262",
"}  c gray39",
"|  c #767676",
" . c #797979",
".. c gray49",
"X. c #7E7E7E",
"o. c gray50",
"O. c #8C810C",
"+. c #8E820C",
"@. c #92870D",
"#. c #A69309",
"$. c #A69409",
"%. c #A79409",
"&. c #A49809",
"*. c #A69809",
"=. c #A4980A",
"-. c #A89B09",
";. c #AD9A09",
":. c #A89C09",
">. c #AA9E09",
",. c #B09D08",
"<. c #B19E08",
"1. c #B19F08",
"2. c #B3A007",
"3. c #B4A107",
"4. c #B6A207",
"5. c #B1A707",
"6. c #B9AD07",
"7. c #B1A208",
"8. c gray51",
"9. c #868686",
"0. c gray53",
"q. c #898989",
"w. c #858692",
"e. c #A4A4A4",
"r. c #AAAAAA",
"t. c #B1B0B0",
"y. c #B2B2B2",
"u. c #B7B7B7",
"i. c gray76",
"p. c #C6C6C6",
"a. c gray82",
"s. c None",
/* pixels */
"s.s.s.s.s.m k h k k M s.s.s.s.s.",
"s.s.s.m h a a l c s a h N s.s.s.",
"s.s.7 h a g s 1 * r d a s 2 s.s.",
"s.X.[ @ z f q ( %.S e x w / E s.",
"s.8.0.o M x 9 >.:.O.- v : 5.W s.",
"   .9.o M f 1 ;.G -.Z t 1 ,.I < ",
". ..0.o M x : 6.D _ ) = 0 1.U u ",
"o o.0.o M d e ~ C A 7.l > <.Y y ",
"o X.0.o M k 3 w.L # @.^ % 2.Y y ",
"X X.0.O M m @ t.] $ T *.& 3.U u ",
"  | q.  V m o y.` 5 , =.F $.U H ",
"s.' a.K 6 @ { p.i l ; ! +.&.Q s.",
"s.+ } i.e.r.u.P 4 b s t #.4.R s.",
"s.s.+ i K J @ 6 k a h p r n s.s.",
"s.s.s.N 8 8 k k a a a j B s.s.s.",
"s.s.s.s.s.V m k k m N s.s.s.s.s."
};
