/* XPM */
static char *c87f876c51db4375858ed51c16df5ef7[] = {
/* columns rows colors chars-per-pixel */
"32 32 232 2 ",
"   c gray1",
".  c #070707",
"X  c gray3",
"o  c gray4",
"O  c #0B0B0B",
"+  c #0C0C0C",
"@  c #0E0E0E",
"#  c gray6",
"$  c #00001D",
"%  c #00031C",
"&  c #01031C",
"*  c #08091B",
"=  c #090A1A",
"-  c #080A1B",
";  c #090B1B",
":  c #0A0A1B",
">  c #0A0B1B",
",  c #0A0C1B",
"<  c #0B0C1B",
"1  c #0C0D1B",
"2  c #0D0E1B",
"3  c #0D0F1B",
"4  c #08091C",
"5  c #0E0F1F",
"6  c #0F111A",
"7  c #0E101B",
"8  c #0F101B",
"9  c #0F111B",
"0  c #101010",
"q  c #111110",
"w  c #111111",
"e  c gray7",
"r  c #131313",
"t  c #141413",
"y  c gray8",
"u  c #161616",
"i  c gray9",
"p  c #1D1B13",
"a  c #1B1A16",
"s  c #10101A",
"d  c #11101A",
"f  c #10111A",
"g  c #10111B",
"h  c #13111A",
"j  c #11121A",
"k  c #11131A",
"l  c #11131B",
"z  c #12131A",
"x  c #13141A",
"c  c #161619",
"v  c #14141A",
"b  c #15141A",
"n  c #15161A",
"m  c #16171A",
"M  c #12131D",
"N  c #14161E",
"B  c #17181A",
"V  c #181818",
"C  c #181819",
"Z  c #191919",
"A  c #1A1A19",
"S  c #1B1B19",
"D  c #18181A",
"F  c #18191A",
"G  c #19191A",
"H  c #19191B",
"J  c #191A1A",
"K  c gray10",
"L  c #1B1B1B",
"P  c #1D1A19",
"I  c #1C1C18",
"U  c #1C1C19",
"Y  c #1D1C19",
"T  c #1D1D19",
"R  c #1E1D19",
"E  c #1C1C1A",
"W  c #1D1D1B",
"Q  c #1B1B1C",
"!  c gray11",
"~  c #1D1D1D",
"^  c #1F1E1C",
"/  c #1F1F1C",
"(  c #1E1E1D",
")  c #1E1E1E",
"_  c gray12",
"`  c #211D07",
"'  c #201F19",
"]  c #221E18",
"[  c #2F2C17",
"{  c #222019",
"}  c #21211D",
"|  c #26241E",
" . c #282418",
".. c #332E16",
"X. c #352F16",
"o. c #373016",
"O. c #393316",
"+. c #3C3415",
"@. c #3D3515",
"#. c #3E3614",
"$. c #111325",
"%. c #111425",
"&. c #202020",
"*. c gray13",
"=. c #222222",
"-. c #232323",
";. c #252521",
":. c gray14",
">. c #272727",
",. c #282828",
"<. c #2A2A2A",
"1. c #323232",
"2. c #333334",
"3. c gray21",
"4. c #403715",
"5. c #403914",
"6. c #423A14",
"7. c #433B14",
"8. c #433D14",
"9. c #443C14",
"0. c #443E15",
"q. c #40381A",
"w. c #454014",
"e. c #464014",
"r. c #4D4513",
"t. c #484214",
"y. c #494214",
"u. c #4A4314",
"i. c #524913",
"p. c #544A12",
"a. c #574B12",
"s. c #574E12",
"d. c #5F5611",
"f. c #6D600F",
"g. c #6D610F",
"h. c #6E620F",
"j. c #72620F",
"k. c #72630F",
"l. c #71640F",
"z. c #70650F",
"x. c #73670F",
"c. c #74680F",
"v. c #78690E",
"b. c #6F6011",
"n. c #6D6210",
"m. c #726210",
"M. c #736310",
"N. c #726910",
"B. c gray25",
"V. c #434343",
"C. c #444444",
"Z. c gray27",
"A. c #464646",
"S. c #49494B",
"D. c gray29",
"F. c #515151",
"G. c gray36",
"H. c #6A6A6A",
"J. c gray42",
"K. c #6D6D6D",
"L. c gray43",
"P. c #717171",
"I. c gray48",
"U. c gray50",
"Y. c #95860B",
"T. c #90820C",
"R. c #93840C",
"E. c #9A8B0B",
"W. c #A49008",
"Q. c #BBA507",
"!. c #BAA807",
"~. c #BBAB07",
"^. c #BFAD06",
"/. c #B1A309",
"(. c #B4A008",
"). c #B6A508",
"_. c #CBBC05",
"`. c #D4BD04",
"'. c #D6C204",
"]. c #DBC703",
"[. c #DCC703",
"{. c #DAC504",
"}. c #E0CC03",
"|. c #E9D702",
" X c #F1DA01",
".X c #F3DD01",
"XX c #F6DF00",
"oX c #F8E100",
"OX c #FFEC00",
"+X c #FFED00",
"@X c #FFEF00",
"#X c #FFEF02",
"$X c #FFF200",
"%X c #FFF300",
"&X c #FFF400",
"*X c #FFF500",
"=X c #FFF600",
"-X c #FFF700",
";X c #FFF800",
":X c yellow",
">X c gray53",
",X c #888888",
"<X c #8D8D8D",
"1X c gray56",
"2X c gray59",
"3X c gray65",
"4X c #A7A7A7",
"5X c #AEAEAE",
"6X c #A9AAB0",
"7X c gray71",
"8X c #C3C3C3",
"9X c #C6C6C6",
"0X c #CECECE",
"qX c gray81",
"wX c #D0D0D0",
"eX c gray82",
"rX c LightGray",
"tX c gray86",
"yX c gainsboro",
"uX c #DDDDDD",
"iX c gray87",
"pX c #DFDFDF",
"aX c gray88",
"sX c gray92",
"dX c #ECECEC",
"fX c gray93",
"gX c #EEEEEE",
"hX c gray94",
"jX c gray95",
"kX c gray96",
"lX c gray100",
"zX c None",
/* pixels */
"zXzXzXzXzXzXzXzXzXzXzXzX&.~ ~ Z ~ ~ ~ &.zXzXzXzXzXzXzXzXzXzXzXzX",
"zXzXzXzXzXzXzXzXzX&.~ Z Z Z Z Z Z Z Z Z Z ~ -.zXzXzXzXzXzXzXzXzX",
"zXzXzXzXzXzXzX&.Z Z Z Z Z ~ Z ~ Z ~ Z Z Z Z Z ~ :.zXzXzXzXzXzXzX",
"zXzXzXzXzXzX~ Z Z ~ Z Z Z Z Z Z Z Z Z Z Z Z Z Z Z &.zXzXzXzXzXzX",
"zXzXzXzXzX~ Z Z Q Z Z Z Z Z Z Z ^ Z Z Z Z Z Z S Z Z ~ zXzXzXzXzX",
"zXzXzXzXy Z Z Z Z Z Z ~ Z Z B l l l Z Z Z Z Z Z Z Z m N zXzXzXzX",
"zXzXzXB.3.Z Z Z Z Q Z Z I Z  .4.+.+.^ Z Z Z Z Z Z Z  .+.| zXzXzX",
"zXzXO 8XpXy Z ~ Z Q Z Z ^ , k.+XoX$Xv., ^ Z S Z ^ , b.-X5.%.zXzX",
"zXzXw wXpXw Z Z Z Z Z ~ I : k.;Xd.~.}.m S Z Z ^ ^ : g.-X5.M zXzX",
"zX&.w wXpXw Z Z Z Z Z Z ^ , k.;X[ 8.-Xs.3 S Z Z I , g.$X9.l ;.zX",
"zX~ w qXtXw Z Z ~ Z Z Z I : b.-Xt.* ].^., ^ Z Z ^ , g.$X5.6 ' zX",
"zX~ # wXpXw ~ Z Z Z Z Z ^ : M.-Xy.% x.+XO.l Z Z a , g.$X9.6 ~ zX",
"&.Z # wXpXw Z ~ Z Z Z Z ^ , M.-X0.3 ] .XE.: ^ m ^ , g.$X9.l Z &.",
"~ ~ # wXpXw Z Z Z Z Z Z ^ , M.-Xt.l : R.XX] m a I , g.$X5.l I &.",
"~ Z w wXtXw Z ~ Z Z Z Z I , b.$X8.l m ..+Xc., S I : g.$X5.M I ~ ",
"Z ~ # wXtXw Z Z Z Z Z ~ Z Z p ` a V ^ : ).[.l a ^ , g.$X9.8 I Q ",
"Z Q 0 wXyXr Z Q Q Z Z Z Q # D.6X1.t ^ 6 r.$Xi., { , g.$X5.l Z I ",
"~ Q # wXyXr I Z Z I Z Z ~ O K.lXA.# ^ Z 6 '.~.: ' , g.$X9.l Z ~ ",
"&.Z # wXyXw Q Z Z Z Z Z ~ O H.lXC.# Z ^ : b.+XX.B , g.-X5.M I &.",
"&.Q 0 rXyXr Z Z Z Q Z Z Q O H.lXA.0 S Z D I  XY., 6 g.$X9.M Z =.",
"zX~ # qXpXr Z Q Z Z Q Z ~ O L.lXB.w ~ Z ^ * T..X{ : g.$X5.s I zX",
"zX&.O 7XkX~ Z Z Q Z I Z ~ O 1XlX1.y Q Z Z x [ +XN.$ l.$X9.l ~ zX",
"zX:.O I.lXG.  _ ~ ~ ~ _ y r aXyXy Z Z Q Z S , /.{.& l.$X9.l ;.zX",
"zXzXZ :.dXgXC.. X X X . Q 3XlXP.+ ~ Z S Z ^ 6 y.$Xo.a.-X5.M zXzX",
"zXzX,.0 F.gXlX9X1XU.>X5XhXlX2Xw ~ Z Q Z Z Z Z l _.|.`.:X8.%.zXzX",
"zXzXzX:.# ,.,XqXsXjXgXyX3XD.# Z Z Z Z Z Q Z I 6 p.Q.(.W.q.zXzXzX",
"zXzXzXzX&.y O O y ~ Z 0 X # Q Z Z Z Z Q Z Z Z ^ x * * 5 zXzXzXzX",
"zXzXzXzXzX~ ~ Z Z V D Q ~ I Q Z Z Q Q I Z Q Z Z S ^ ' zXzXzXzXzX",
"zXzXzXzXzXzX&.Z Z Z I Q Z Q Q I I Q Z Z Z Z Z Z Z ~ zXzXzXzXzXzX",
"zXzXzXzXzXzXzX:.~ Z Z Z Z Z Z Z Q Z Z Q Z Z Z ~ :.zXzXzXzXzXzXzX",
"zXzXzXzXzXzXzXzXzX&.~ Q Z Z Z Z Z Z Z Z ~ ~ &.zXzXzXzXzXzXzXzXzX",
"zXzXzXzXzXzXzXzXzXzXzXzX&.&.~ Q Q ~ &.&.zXzXzXzXzXzXzXzXzXzXzXzX"
};
