/* XPM */
static char *_b0938993a74488284bcb10003f17133[] = {
/* columns rows colors chars-per-pixel */
"64 64 107 2 ",
"   c #07080F",
".  c #0B0B0B",
"X  c #070810",
"o  c #0C0E13",
"O  c #01031D",
"+  c #0B0D1B",
"@  c #110F1A",
"#  c #0E101B",
"$  c #141414",
"%  c #12121A",
"&  c #19161A",
"*  c #17181A",
"=  c #1A1A1A",
"-  c #231E18",
";  c #272217",
":  c #2C2516",
">  c #2F2817",
",  c #242118",
"<  c #342D16",
"1  c #322C18",
"2  c #3D3415",
"3  c #3B3519",
"4  c #0F1120",
"5  c #232323",
"6  c #2A2A25",
"7  c #24272E",
"8  c #2C2C2C",
"9  c gray21",
"0  c #3C3C3C",
"q  c #423514",
"w  c #463914",
"e  c #4A3C13",
"r  c #4E4312",
"t  c #554612",
"y  c #564A12",
"u  c #5C4B11",
"i  c #6C5A0F",
"p  c #705F0F",
"a  c #625610",
"s  c #685110",
"d  c #675810",
"f  c #6A5C10",
"g  c #6E610F",
"h  c #71630F",
"j  c #7C660E",
"k  c #7A690E",
"l  c #40403F",
"z  c #414141",
"x  c #484848",
"c  c #51514F",
"v  c #545353",
"b  c #595959",
"n  c gray39",
"m  c #6E6E6E",
"M  c #717171",
"N  c #83720D",
"B  c #89760C",
"V  c #847C0D",
"C  c #8F7C0B",
"Z  c #937F0B",
"A  c #8A850F",
"S  c #97840B",
"D  c #98830B",
"F  c #9E8B0A",
"G  c #A48F09",
"H  c #AA9408",
"J  c #AE9808",
"K  c #B59E07",
"L  c #B29C08",
"P  c #B7A207",
"I  c #BDA506",
"U  c #C0A705",
"Y  c #C3AA06",
"T  c #C9AB06",
"R  c #CCB405",
"E  c #D4BD04",
"W  c #D8BC04",
"Q  c #DDC403",
"!  c #DBCA04",
"~  c #E4CC03",
"^  c #E8CE02",
"/  c #EBD202",
"(  c #EDD902",
")  c #F4DB01",
"_  c #F8DD00",
"`  c #F7E001",
"'  c #FCE400",
"]  c #FFED00",
"[  c #FFF200",
"{  c #FFF900",
"}  c gray53",
"|  c #8D8D8D",
" . c #939393",
".. c #9A9A9A",
"X. c #A3A3A3",
"o. c #ABABAB",
"O. c #B3B3B3",
"+. c #BCBCBC",
"@. c #C3C3C3",
"#. c #CBCBCB",
"$. c #D4D4D4",
"%. c #DDDDDD",
"&. c #E2E2E2",
"*. c gray93",
"=. c #F4F4F4",
"-. c #FFFFFF",
";. c None",
/* pixels */
";.;.;.;.;.;.;.;.;.;.;.;.;.;.;.;.;.;.;.;.;.;.;.;.;.;.6 7 5 5 = = = 5 , 5 6 8 ;.;.;.;.;.;.;.;.;.;.;.;.;.;.;.;.;.;.;.;.;.;.;.;.;.;.",
";.;.;.;.;.;.;.;.;.;.;.;.;.;.;.;.;.;.;.;.;.;.5 5 = = = = * & = = * * = * * * = 5 , 8 ;.;.;.;.;.;.;.;.;.;.;.;.;.;.;.;.;.;.;.;.;.;.",
";.;.;.;.;.;.;.;.;.;.;.;.;.;.;.;.;.;.;.;.5 = = & & & = = = = = = & = = = = = * & * = = , ;.;.;.;.;.;.;.;.;.;.;.;.;.;.;.;.;.;.;.;.",
";.;.;.;.;.;.;.;.;.;.;.;.;.;.;.;.;.;.- = & = = = = = * = = = = = = = = & = = = * = * * $ = 5 8 ;.;.;.;.;.;.;.;.;.;.;.;.;.;.;.;.;.",
";.;.;.;.;.;.;.;.;.;.;.;.;.;.;.;.- * * * = = * = = = = = = = = = = = * = = & & = = = = = = * * - ;.;.;.;.;.;.;.;.;.;.;.;.;.;.;.;.",
";.;.;.;.;.;.;.;.;.;.;.;.;.;.5 = * = = = = = = = = = = = = = = = = = = $ = $ = = = = = = * = = = = 6 ;.;.;.;.;.;.;.;.;.;.;.;.;.;.",
";.;.;.;.;.;.;.;.;.;.;.;.;.= = & = * = = = = * = = = = = = = = = = = = = = = = = = = = = = = = = = * 5 ;.;.;.;.;.;.;.;.;.;.;.;.;.",
";.;.;.;.;.;.;.;.;.;.;.6 = * = = = = = = = = = = = = = = = = = = = = = = = = = = = = = * = = & $ = = * = 8 ;.;.;.;.;.;.;.;.;.;.;.",
";.;.;.;.;.;.;.;.;.;.5 = = = = = = = = = = = = = = = = = = = = = = = = = = = = = = & & = = = = = = * = = = 6 ;.;.;.;.;.;.;.;.;.;.",
";.;.;.;.;.;.;.;.;.5 = = = = = = = = * = = = = = = = = = = = = = = * = = = = = * = = = & = = = = = = = = * * 8 ;.;.;.;.;.;.;.;.;.",
";.;.;.;.;.;.;.;.5 = = = & = = = = = = = = = = = = = = = = = = = = = = = = = = = = & = = = = = * = = = = = = & 6 ;.;.;.;.;.;.;.;.",
";.;.;.;.;.;.;.8 = = = = = = = = = = = = = = = = = = = = = = = = = - = = = = = = = = = * = = = $ = = = = & = = = 8 ;.;.;.;.;.;.;.",
";.;.;.;.;.;.;.. . $ = = = * = = = = = = = = = = = = * = = @ # # o # # # * = = = = = = = * * = = & = = = = % # # * ;.;.;.;.;.;.;.",
";.;.;.;.;.;.z b b z & = = = = = = = = = = = = = = = = = * e u t t y t u : * = = = = = = = = = = = = = = * e y u > = ;.;.;.;.;.;.",
";.;.;.;.;.. | -.-.o.. = = = = = = = = = = = = = = = = = @ R [ ' ] ' ' { H + = = = = = = = = = = = = = = @ Y [ [ p + 8 ;.;.;.;.;.",
";.;.;.;.;..  .-.-.o.o = = = = = = = = = = = = = = = = = @ T ] _ ] [ ' ' ) 1 $ = = = = = = = = = = = = = @ I ] ] d + - ;.;.;.;.;.",
";.;.;.;.5 .  .-.-.o.. = = = = = = = = = = = = = = & = = $ T ] ] H a P ] ] B + = = = = = = = & = = = = = @ I ] ] i + = , ;.;.;.;.",
";.;.;.;.5 .  .-.-.o.. = = = = = = = = = = = = = = = = = $ T ] [ f O q ' ] ~ = * = = = = = = = * = = = = @ U ] ] i + = = 8 ;.;.;.",
";.;.;.= * .  .-.-.o.. = = = = = = = = = = = = = = = = = @ T ] [ h # @ P ] ] d # = = = = = = = = = = = $ # U ] ] i + = = 5 ;.;.;.",
";.;.;.= = .  .-.-.o.. 5 = = = = = = = = * = = = & = = = @ T ] ] h # # u ] ] Y @ = = = = = = = = = = = = @ I ] ] i + = = = ;.;.;.",
";.;.5 & = .  .-.-.o.. = = = = = = = = & = * = * = = = - @ T ] [ h + = & E ] ` e @ = = = = = = = = = = = $ U ] ] i + = = = 5 ;.;.",
";.;.= = = .  .-.-.o.. = = = = = = = & = = = = = = = = = % T ] ] h + - + k ] [ G + = = = = = = = = = $ - o Y ] ] i + - = = = ;.;.",
";.6 = = = .  .-.-.o.. = = = = = = & = * = * = * = = = = @ T ] ] h + = * ; ^ ] ( > $ = = = = = = = = = = # Y [ ] i + = = = = 8 ;.",
";.5 = = = .  .-.-.o.. 5 = = = = = = = * = = = = = = = = @ T ] [ h # = = + D ] ] N + - = = = = = = = = = # I [ [ i + = = = = 5 ;.",
";.= = = = .  .-.-.o.. = = = & & = = = = = = = = = = = = % T ] ] h + = = # 2 ` ] W = = = = = = = = = = = @ U ] ] i + = = = * - ;.",
";.= = = = .  .-.-.o.. = & * = = & = = & = = = = = = = = % T ] ] g + - * - # L [ ] a # = * = = = = = = - @ I ] ] i + - & = = = ;.",
"6 * = = = .  .-.-.o.. = = = = = = = = = = = = = = = = = @ T ] ] h + = = = @ y ] [ I # = = = = = = = = = % I ] [ i + = = = = = 8 ",
"5 & = = = .  .-.-.o.. 5 = = * = = & = = = = = = = = $ = @ T ] ] h + = = = = % R ] ` w # = = = = = = = = # Y ] ] i + = = * = * 6 ",
"5 = = = = .  .-.-.o.. = = = = = = = * = = = = = = = = = $ T ] ] h + - = = = # h ] [ F + , = = = = = = = # Y [ ] f # = = = = * 5 ",
"5 * = = = .  .-.-.o.. 5 = = = & = = $ = = = = = = = = = $ Y ] ] g # = = = = * ; ~ ] ^ : $ = = = = = = = @ U ] ] i o = = = = & 5 ",
"= = = = = .  .-.-.o.. = = = = = = = = = * = = = = = = = & 1 3 3 , * = = = & = + S ] ] k o = $ = = = = = @ U ] [ i + = = = = & 5 ",
"= = = = = o  .-.-.o.. = = = = = = = = = = = = = = = = = = o     $ = & = = = = % 3 ) ] ! * = = = = = = = @ I ] ] i + - = * = * = ",
"= = = = = .  .-.-.o.. 5 = * = = = & = & = * = = = = = = = z c c 8 * = = = = = = # J [ ] u # - = = = = = @ I [ [ i + = = = = & = ",
"5 = = = = .  .-.-.o.. = = = = = = = = = * = * = = = = = . +.-.-.m . = = = = = = # r ' [ P # = = = = = = @ U ] ] i + = = = = = , ",
"5 & = = = .  .-.-.o.. = = = = = = = = = = = = * = = = = $ +.-.-.m . - * = = = = = & R ] _ q @ = = = = = # U [ ] i + = = & = * 5 ",
"5 * = = = .  .-.-.o.. = = = = = = = = = * = = * = = = = . +.-.-.m . = = = = = = = + g ] [ D + = = = = = @ U ] ] i # = = = & * 5 ",
"5 = = = = . ..-.-.o.. = = = = = = = = = = = = = = = = = $ +.-.-.m . 5 * = = = = = & ; ~ [ ^ ; & = = = = $ I ] ] f # = = = = & 6 ",
"8 = = = = .  .-.-.o.. = = = = = = = = = = = = * = = = = . +.-.-.m . = * = = = = & = + C ] ] h + - = = = $ I ] [ f o = = = = = 8 ",
";.= = = 5 . X.-.-.o.. 5 = = = = = = = = = = = = = = = = $ +.-.-.m . 5 * = = = = = = & < _ ] R * = = = = % I [ ] i + - = & * = ;.",
";.= * = = .  .-.-.o.. = = = = = = = = = = = = = = = = = . +.-.-.m . = = = = = = = = = + H [ ] y o = = = % I [ [ i + = = = * 5 ;.",
";.5 = = = .  .-.-.o.. 5 = = = = = = = = = = = = = = = = $ +.-.-.m . 5 * = = = = = = = % r ] [ L # = = = @ U ] [ i + = = = = , ;.",
";.8 = = = . | -.-.O.. = = = = = = = = = = = = = = = = = $ #.-.-.n . - * = = = = = = = * @ R ] _ 3 $ = = # U ] ] i + - = = & 8 ;.",
";.;.= = = . M -.-.#.$ = = = = = = = = = = = = = = = & & = %.-.-.v . = * = = = = = = = = + f ] { A # - = @ U ] ] i + = = * 5 ;.;.",
";.;.5 = 5 . v -.-.=.8 * = = = = = = = = = = = = = = = o l -.-.=.9 $ = = = = = & = = = = = = ! [ ~ , * = @ U ] ] i + = = * 5 ;.;.",
";.;.;.= = * 6 *.-.-.m . = = = = = = = = = = = = = = = . } -.-.$.= = = = = = * = = = = * = o k { ] g + = @ U ] [ f + = = * ;.;.;.",
";.;.;.5 = = . +.-.-.$.= = 5 = = = = = = = = = = = - * 6 *.-.-. .. = = * = = = = = = = = * * < ( [ R & = @ U ] ] i # - & - ;.;.;.",
";.;.;.8 = = . b -.=.-.X.. $ = = = = = = = = = = = o * @.-.-.=.9 $ = = = * = = = = = = = * - + H [ ' r * * U [ ] i o = = 8 ;.;.;.",
";.;.;.;.5 * = $ O.-.=.-.O.8 . . $ * * = = & $ . . 0 #.-.=.-.| . = = = = = = = = = = = = = = # r ' [ J O O I ] ] d + = 5 ;.;.;.;.",
";.;.;.;.;.= = & 5 $.-.=.-.*...v 8 = = * & 5 0 n O.=.-.=.-.o.$ = = = = = = = = = = = = = = = = @ Y [ ) j s W ] ] i + = ;.;.;.;.;.",
";.;.;.;.;.6 = = $ 7 +.-.-.-.-.-.=.%.$.$.$.&.=.-.-.-.-.-...* * = * = = = = = = = = = = = = = = # f [ ` ] ] ` _ ] i + 6 ;.;.;.;.;.",
";.;.;.;.;.;.= = = * $ n #.-.-.-.-.-.-.-.-.-.-.-.-.=.O.x . = = = = = = = = = = = = = = = = = = * = Q [ ' ] ] ] { i # ;.;.;.;.;.;.",
";.;.;.;.;.;.;.= & = & . $ 0 M ..O.@.$.$.$.+.o.| n 8 . . = = = = = = = = = = = = = = = = = = = = * w u y u u y u 1 ;.;.;.;.;.;.;.",
";.;.;.;.;.;.;.8 = = * - & $ . . o * $ * & $ . . . * = = = = = = = = = = * = = = = = = = = = = * = * # + # + # # 7 ;.;.;.;.;.;.;.",
";.;.;.;.;.;.;.;.8 * * = & = = = = = = = = = = = = = = = = = = = = = = = = = = = = = = = = = = = = = - = = = = 8 ;.;.;.;.;.;.;.;.",
";.;.;.;.;.;.;.;.;.6 * & = = = = = = = = = = = = = = = = = = = = = = = = = = = = = = = = = = = = = = & = = = 6 ;.;.;.;.;.;.;.;.;.",
";.;.;.;.;.;.;.;.;.;.6 = = = & = = = = * = = = = = = = = = = = = = = = = = = = = = = = = = = = = = & = = = 6 ;.;.;.;.;.;.;.;.;.;.",
";.;.;.;.;.;.;.;.;.;.;.8 = = = = = = = = = = = = = = = = = = = = = = = = = = = = = = = = = = = * = = = = 8 ;.;.;.;.;.;.;.;.;.;.;.",
";.;.;.;.;.;.;.;.;.;.;.;.;.5 * * = = = = = = = = = = = = = = = = = = = = = = = = = = = = = & = = = = 5 ;.;.;.;.;.;.;.;.;.;.;.;.;.",
";.;.;.;.;.;.;.;.;.;.;.;.;.;.6 & = = = = = = = = = = = = = = = = * = = = = = = = = = = = * & & * = 5 ;.;.;.;.;.;.;.;.;.;.;.;.;.;.",
";.;.;.;.;.;.;.;.;.;.;.;.;.;.;.;.= = & = = = * = = = = = = = = = = = = = = = = = = = = = = * = , ;.;.;.;.;.;.;.;.;.;.;.;.;.;.;.;.",
";.;.;.;.;.;.;.;.;.;.;.;.;.;.;.;.;.8 5 = = = = = = = & * = = = = = = = = * = = = = = = = = 5 8 ;.;.;.;.;.;.;.;.;.;.;.;.;.;.;.;.;.",
";.;.;.;.;.;.;.;.;.;.;.;.;.;.;.;.;.;.;.;.5 = = * & = = = = = = = = = = = = = = * * = = 5 ;.;.;.;.;.;.;.;.;.;.;.;.;.;.;.;.;.;.;.;.",
";.;.;.;.;.;.;.;.;.;.;.;.;.;.;.;.;.;.;.;.;.;.8 5 , = = * * & = = * = * * = = = = 5 8 ;.;.;.;.;.;.;.;.;.;.;.;.;.;.;.;.;.;.;.;.;.;.",
";.;.;.;.;.;.;.;.;.;.;.;.;.;.;.;.;.;.;.;.;.;.;.;.;.;.8 5 7 5 = = = - 5 5 7 8 ;.;.;.;.;.;.;.;.;.;.;.;.;.;.;.;.;.;.;.;.;.;.;.;.;.;."
};
